<svg width="1288" height="1282" viewBox="0 0 1288 1282" fill="none" xmlns="http://www.w3.org/2000/svg" xmlns:xlink="http://www.w3.org/1999/xlink">
<path d="M48.004,404C110.003,351 179.003,386 250.004,333C321.004,280 321.004,234 389.004,215C457.004,196 526.004,249 610.004,140C610.004,140 704.004,0 812.004,0C920.004,0 1286.004,0 1286.004,0L1286.004,1268C1286.004,1268 1085.004,1296 1001.004,1268C917.004,1240 818.004,1138 706.004,1181C594.004,1224 475.004,1221 389.004,1072C303.004,923 179.003,789 76.004,721C-26.996,653 -13.996,457 48.004,404Z" fill="#E7EDF5"/>
</svg>
